<svg xmlns="http://www.w3.org/2000/svg" width="1920" height="30" viewBox="0 0 1920 30">
  <defs>
    <style>
      .cls-1 {
        font-size: 251.761px;
      }

      .cls-1, .cls-2, .cls-3, .cls-4 {
        fill: #1e6573;
        font-family: Roboto;
      }

      .cls-2 {
        font-size: 68.865px;
      }

      .cls-3 {
        font-size: 160.938px;
      }

      .cls-4 {
        font-size: 85.634px;
      }
    </style>
  </defs>
  <text id="N" class="cls-1" transform="translate(-538.278 38.457) scale(0.143)">N</text>
  <text id="F" class="cls-2" transform="translate(-699.938 4.766) rotate(41.471) scale(0.533)">F</text>
  <text id="_" data-name="(" class="cls-3" transform="translate(-623.355 22.935) rotate(-30) scale(0.224)">(</text>
  <text id="L" class="cls-1" transform="translate(-213.982 30.95) rotate(-15) scale(0.143)">L</text>
  <text id=":" class="cls-1" transform="translate(237.587 8.975) rotate(45) scale(0.143)">:</text>
  <text id="I" class="cls-1" transform="translate(281.848 20.368) rotate(-30) scale(0.143)">I</text>
  <text id="G" class="cls-1" transform="translate(535.563 -6.38) rotate(179.995) scale(0.143)">G</text>
  <text id="E" class="cls-4" transform="translate(435.306 22.265) rotate(-37.385) scale(0.42)">E</text>
  <text id="D" class="cls-1" transform="translate(240.591 51.394) rotate(27.451) scale(0.143)">D</text>
  <text id="_2" data-name=";" class="cls-1" transform="translate(-770.515 29.03) scale(0.143)">;</text>
  <text id="_3" data-name="+" class="cls-1" transform="translate(-101.93 36.962) scale(0.143)">+</text>
  <text id="_-" data-name="-" class="cls-1" transform="translate(530.723 3.091) rotate(-21.953) scale(0.143)">-</text>
  <text id="_4" data-name="{" class="cls-1" transform="translate(-422.087 28.865) rotate(30) scale(0.143)">{</text>
  <text id="_5" data-name="{" class="cls-1" transform="matrix(0.118, -0.081, 0.081, 0.118, 372.432, 22.809)">{</text>
  <text id="J" class="cls-1" transform="translate(401.781 5.788) rotate(45) scale(0.143)">J</text>
  <text id="N-2" data-name="N" class="cls-1" transform="translate(629.722 39.458) scale(0.143)">N</text>
  <text id="F-2" data-name="F" class="cls-2" transform="translate(374.062 32.766) rotate(41.471) scale(0.533)">F</text>
  <text id="_6" data-name="(" class="cls-3" transform="translate(584.644 41.935) rotate(-30) scale(0.224)">(</text>
  <text id="L_copy" data-name="L copy" class="cls-1" transform="translate(789.882 22.676) rotate(-135) scale(0.143)">L</text>
  <text id=":-2" data-name=":" class="cls-1" transform="translate(1228.587 11.975) rotate(45) scale(0.143)">:</text>
  <text id="I-2" data-name="I" class="cls-1" transform="translate(694.848 29.368) rotate(-30) scale(0.143)">I</text>
  <text id="E-2" data-name="E" class="cls-4" transform="translate(615.233 -9.688) rotate(39.866) scale(0.42)">E</text>
  <text id="D-2" data-name="D" class="cls-1" transform="translate(1445.591 9.394) rotate(27.451) scale(0.143)">D</text>
  <text id="D_copy" data-name="D copy" class="cls-1" transform="translate(791.591 11.394) rotate(27.451) scale(0.143)">D</text>
  <text id="_7" data-name=";" class="cls-1" transform="translate(554.484 18.03) scale(0.143)">;</text>
  <text id="_8" data-name="+" class="cls-1" transform="translate(427.071 64.963) scale(0.143)">+</text>
  <text id="_--2" data-name="-" class="cls-1" transform="translate(1485.723 -5.909) rotate(-21.953) scale(0.143)">-</text>
  <text id="_9" data-name="{" class="cls-1" transform="translate(471.913 25.865) rotate(30) scale(0.143)">{</text>
  <text id="_10" data-name="{" class="cls-1" transform="matrix(0.118, -0.081, 0.081, 0.118, 739.432, 19.809)">{</text>
  <text id="J-2" data-name="J" class="cls-1" transform="translate(1146.781 5.788) rotate(45) scale(0.143)">J</text>
  <text id="N-3" data-name="N" class="cls-1" transform="translate(2030.726 38.457) scale(0.143)">N</text>
  <text id="F-3" data-name="F" class="cls-2" transform="translate(1104.783 27.582) rotate(-37.663) scale(0.533)">F</text>
  <text id="_11" data-name="(" class="cls-3" transform="translate(1661.645 22.935) rotate(-30) scale(0.224)">(</text>
  <text id="L-2" data-name="L" class="cls-1" transform="translate(2355.014 30.95) rotate(-15) scale(0.143)">L</text>
  <text id=":-3" data-name=":" class="cls-1" transform="translate(2547.59 8.975) rotate(45) scale(0.143)">:</text>
  <text id="I-3" data-name="I" class="cls-1" transform="translate(2628.845 37.368) rotate(-30) scale(0.143)">I</text>
  <text id="G-2" data-name="G" class="cls-1" transform="translate(2273.568 8.62) rotate(179.995) scale(0.143)">G</text>
  <text id="E-3" data-name="E" class="cls-4" transform="translate(2714.304 15.265) rotate(-37.385) scale(0.42)">E</text>
  <text id="D_copy_2" data-name="D copy 2" class="cls-1" transform="translate(2970.586 14.394) rotate(27.451) scale(0.143)">D</text>
  <text id="_12" data-name=";" class="cls-1" transform="translate(1344.486 19.03) scale(0.143)">;</text>
  <text id="_13" data-name="+" class="cls-1" transform="translate(2467.066 36.962) scale(0.143)">+</text>
  <text id="_-_copy_2" data-name="- copy 2" class="cls-1" transform="translate(3044.717 -1.909) rotate(-21.953) scale(0.143)">-</text>
  <text id="_14" data-name="{" class="cls-1" transform="translate(2146.906 28.865) rotate(30) scale(0.143)">{</text>
  <text id="_copy_3" data-name="{ copy 3" class="cls-1" transform="matrix(0.118, -0.081, 0.081, 0.118, 2881.44, 32.809)">{</text>
  <text id="J_copy_2" data-name="J copy 2" class="cls-1" transform="translate(2792.774 5.788) rotate(45) scale(0.143)">J</text>
  <text id="I-4" data-name="I" class="cls-1" transform="translate(1214.849 38.368) rotate(-30) scale(0.143)">I</text>
  <text id="E-4" data-name="E" class="cls-4" transform="translate(1307.401 10.017) rotate(21.8) scale(0.42)">E</text>
  <text id="_15" data-name="{" class="cls-1" transform="matrix(0.118, -0.081, 0.081, 0.118, 1271.432, 22.809)">{</text>
  <text id="J-3" data-name="J" class="cls-1" transform="translate(1393.713 20.727) rotate(-11.986) scale(0.143)">J</text>
  <text id="_16" data-name="(" class="cls-3" transform="translate(1565.645 39.934) rotate(-30) scale(0.224)">(</text>
  <text id="E-5" data-name="E" class="cls-4" transform="translate(1603.235 -10.688) rotate(39.866) scale(0.42)">E</text>
  <text id="_17" data-name=";" class="cls-1" transform="translate(1515.485 20.03) scale(0.143)">;</text>
  <text id="_18" data-name="{" class="cls-1" transform="translate(1412.913 35.865) rotate(30) scale(0.143)">{</text>
</svg>
